#!OML:ASF I:\Actors\actors\Patient Classification 1\Patient 1\Session 1\Subject1.ASF
:FULLY-SPECIFIED
:DEGREES
554
root -0.0260382 17.5726 8.28859 8.83339 -1.69829 -6.09931
lowerback -0.697171 1.79196 3.89906
upperback -11.0735 2.63194 -0.183255
thorax -11.2715 0.90195 -2.60306
lowerneck -14.5634 -2.00892 -0.52143
upperneck 31.0083 -5.33241 7.61605
head 13.051 -1.40995 2.23213
rclavicle -3.97569e-015 -7.15625e-015
rhumerus -27.5677 47.1682 -101.777
rradius 88.7635
rwrist -8.55888
rhand 2.06942 -51.8545
rfingers 7.12502
rthumb 27.571 -439.855
lclavicle -3.97569e-015 -7.15625e-015
lhumerus -36.8331 -46.6919 101.021
lradius 85.5591
lwrist 23.3532
lhand -39.3393 2.29368
lfingers 7.12502
lthumb -12.3308 31.9101
rfemur 0.574886 32.734 21.0034
rtibia -0.785357
rfoot -15.6794 -30.0706
rtoes 1.54277
lfemur 7.32817 -43.4133 -17.9721
ltibia -5.57075
lfoot -13.6407 51.0283
ltoes 4.83177
555
root -0.0255573 17.5745 8.28836 8.7526 -1.83511 -6.03688
lowerback -0.552047 1.8353 3.8742
upperback -11.0497 2.69398 -0.199719
thorax -11.3275 0.932063 -2.61754
lowerneck -14.3239 -2.27026 -0.680168
upperneck 30.4118 -5.60527 7.58248
head 12.7677 -1.57806 2.18945
rclavicle 2.34566e-014 -7.95139e-015
rhumerus -25.7634 44.9087 -99.968
rradius 88.935
rwrist -7.65099
rhand 7.07192 -51.1805
rfingers 7.12502
rthumb 32.3441 -438.317
lclavicle 2.34566e-014 -7.95139e-015
lhumerus -36.698 -44.5356 100.639
lradius 85.8801
lwrist 22.2656
lhand -38.9579 2.64484
lfingers 7.12502
lthumb -11.9631 32.283
rfemur 0.514127 32.4103 20.8674
rtibia -0.703654
rfoot -15.5645 -29.6387
rtoes 1.50672
lfemur 7.38072 -43.2053 -18.099
ltibia -5.51309
lfoot -13.8765 50.9482
ltoes 5.08158
556
root -0.0229249 17.5768 8.28652 8.64141 -2.04804 -6.08459
lowerback -0.347983 1.88939 4.03239
upperback -11.0418 2.78558 -0.204916
thorax -11.4307 0.957733 -2.72737
lowerneck -14.1498 -2.56828 -0.929198
upperneck 30.009 -5.99063 7.74435
head 12.6003 -1.77477 2.22756
rclavicle -3.18055e-014 -6.36111e-015
rhumerus -23.9533 42.1931 -98.5045
rradius 88.6453
rwrist -7.15603
rhand 11.4667 -51.3525
rfingers 7.12502
rthumb 36.5161 -437.541
lclavicle -3.18055e-014 -6.36111e-015
lhumerus -36.7293 -42.6941 100.338
lradius 86.264
lwrist 21.5214
lhand -39.3846 3.27733
lfingers 7.12502
lthumb -12.3745 32.8911
rfemur 0.47791 32.0418 20.8702
rtibia -0.60881
rfoot -15.2979 -29.1213
rtoes 1.1614
lfemur 7.54892 -43.0538 -18.2078
ltibia -5.43756
lfoot -14.3185 50.9716
ltoes 5.62129
557
root -0.0203541 17.5766 8.28428 8.59427 -2.24375 -6.18597
lowerback -0.277884 1.91427 4.27857
upperback -11.035 2.83822 -0.190334
thorax -11.4545 0.959301 -2.85585
lowerneck -14.0825 -2.84763 -1.44692
upperneck 29.75 -6.34794 8.09155
head 12.5322 -1.95952 2.39133
rclavicle 1.86858e-014 -1.03368e-014
rhumerus -22.3134 38.7012 -97.5138
rradius 87.9239
rwrist -6.86267
rhand 15.5331 -52.7697
rfingers 7.12502
rthumb 40.3533 -437.888
lclavicle 1.86858e-014 -1.03368e-014
lhumerus -36.7766 -41.2466 100.049
lradius 86.5725
lwrist 21.2357
lhand -40.3617 3.4454
lfingers 7.12502
lthumb -13.3165 32.9999
rfemur 0.421164 31.7624 20.9338
rtibia -0.554425
rfoot -15.0318 -28.72
rtoes 0.531725
lfemur 7.60288 -42.7835 -18.1419
ltibia -5.39882
lfoot -14.4372 50.8805
ltoes 5.86036
558
root -0.0202899 17.5761 8.28281 8.58045 -2.61997 -6.20437
lowerback -0.305341 1.9677 4.38542
upperback -11.0393 2.91402 -0.192286
thorax -11.433 0.985831 -2.92269
lowerneck -13.8128 -2.9536 -1.32599
upperneck 29.4291 -6.49207 8.04748
head 12.3484 -2.03374 2.32593
rclavicle -2.56432e-014 5.56597e-015
rhumerus -18.8919 38.289 -95.3841
rradius 86.3666
rwrist -9.34409
rhand 17.7926 -56.0673
rfingers 7.12502
rthumb 42.4735 -440.497
lclavicle -2.56432e-014 5.56597e-015
lhumerus -36.7731 -40.1363 99.7282
lradius 86.7212
lwrist 21.2625
lhand -41.1067 2.93783
lfingers 7.12502
lthumb -14.0344 32.444
rfemur 0.293535 31.5621 20.8637
rtibia -0.487089
rfoot -14.7842 -28.2115
rtoes -0.0148302
lfemur 7.70229 -42.4767 -18.2028
ltibia -5.39942
lfoot -14.5835 50.886
ltoes 6.15918
559
root -0.0213463 17.5771 8.28106 8.52311 -3.10851 -6.16667
lowerback -0.295353 2.04009 4.41037
upperback -11.0566 3.01101 -0.211839
thorax -11.4494 1.02802 -2.96684
lowerneck -13.5949 -3.19942 -1.61591
upperneck 29.1356 -6.80941 8.24142
head 12.2229 -2.20045 2.398
rclavicle 1.19271e-015 1.66979e-014
rhumerus -16.3711 36.663 -94.3469
rradius 84.6067
rwrist -11.2727
rhand 18.6865 -59.151
rfingers 7.12502
rthumb 43.3096 -443.287
lclavicle 1.19271e-015 1.66979e-014
lhumerus -36.6552 -39.3903 99.4096
lradius 86.6868
lwrist 21.7166
lhand -41.8116 2.3866
lfingers 7.12502
lthumb -14.7136 31.8445
rfemur 0.18538 31.437 20.7308
rtibia -0.392665
rfoot -14.5871 -27.6389
rtoes -0.223125
lfemur 7.96941 -42.413 -18.4956
ltibia -5.36773
lfoot -15.1765 51.1805
ltoes 6.90512
